<svg xmlns="http://www.w3.org/2000/svg" viewBox="0 0 400 400" fill="none">
  <rect width="400" height="400" rx="24" fill="#0d0d0d"/>
  <g fill="#D4AF37">
    <circle cx="200" cy="60" r="6"/>
    <circle cx="160" cy="68" r="5"/>
    <circle cx="240" cy="68" r="5"/>
    <circle cx="125" cy="85" r="6"/>
    <circle cx="275" cy="85" r="6"/>
    <circle cx="95" cy="110" r="5"/>
    <circle cx="305" cy="110" r="5"/>
    <circle cx="75" cy="145" r="5"/>
    <circle cx="325" cy="145" r="5"/>
    <circle cx="65" cy="185" r="5"/>
    <circle cx="335" cy="185" r="5"/>
  </g>
  <g stroke="#D4AF37" stroke-width="2" stroke-linecap="round">
    <line x1="200" y1="125" x2="200" y2="105"/>
    <line x1="200" y1="125" x2="180" y2="112"/>
    <line x1="200" y1="125" x2="220" y2="112"/>
    <line x1="200" y1="125" x2="170" y2="125"/>
    <line x1="200" y1="125" x2="230" y2="125"/>
  </g>
  <circle cx="200" cy="125" r="5" fill="#D4AF37"/>
  <text x="200" y="240" text-anchor="middle" font-family="serif" font-size="80" font-weight="900" fill="#D4AF37">इंदौरी</text>
  <rect x="80" y="290" width="240" height="50" fill="#D4AF37"/>
  <text x="200" y="325" text-anchor="middle" font-family="'Playfair Display', serif" font-size="32" font-weight="900" fill="#0d0d0d" letter-spacing="6">SARAFA</text>
</svg>